<svg width="1600" height="850" viewBox="0 0 1600 850" xmlns="http://www.w3.org/2000/svg"><defs><marker id="ah-032858" viewBox="0 0 10 10" refX="8.5" refY="5" markerWidth="7" markerHeight="7" orient="auto-start-reverse"><path d="M 0 0 L 10 5 L 0 10 z" fill="#032858"/></marker><marker id="ah-97EF29" viewBox="0 0 10 10" refX="8.5" refY="5" markerWidth="7" markerHeight="7" orient="auto-start-reverse"><path d="M 0 0 L 10 5 L 0 10 z" fill="#97EF29"/></marker><marker id="ah-5F5F5F" viewBox="0 0 10 10" refX="8.5" refY="5" markerWidth="7" markerHeight="7" orient="auto-start-reverse"><path d="M 0 0 L 10 5 L 0 10 z" fill="#5F5F5F"/></marker><marker id="ah-7AD91F" viewBox="0 0 10 10" refX="8.5" refY="5" markerWidth="7" markerHeight="7" orient="auto-start-reverse"><path d="M 0 0 L 10 5 L 0 10 z" fill="#7AD91F"/></marker><marker id="ah-0869D4" viewBox="0 0 10 10" refX="8.5" refY="5" markerWidth="7" markerHeight="7" orient="auto-start-reverse"><path d="M 0 0 L 10 5 L 0 10 z" fill="#0869D4"/></marker><marker id="ah-9CA3AF" viewBox="0 0 10 10" refX="8.5" refY="5" markerWidth="7" markerHeight="7" orient="auto-start-reverse"><path d="M 0 0 L 10 5 L 0 10 z" fill="#9CA3AF"/></marker><linearGradient id="heroNavy" x1="0%" y1="0%" x2="100%" y2="100%"><stop offset="0%" stop-color="#032858"/><stop offset="50%" stop-color="#0A3A6B"/><stop offset="100%" stop-color="#032858"/></linearGradient><linearGradient id="airy" x1="0%" y1="0%" x2="100%" y2="100%"><stop offset="0%" stop-color="#FFFFFF"/><stop offset="40%" stop-color="#F0F4FF"/><stop offset="70%" stop-color="#E8F9FF"/><stop offset="100%" stop-color="#FFFFFF"/></linearGradient><linearGradient id="greenGlow" x1="0%" y1="0%" x2="100%" y2="0%"><stop offset="0%" stop-color="#CFEEB0"/><stop offset="100%" stop-color="#97EF29"/></linearGradient></defs><rect width="1600" height="850" fill="#FFFFFF"/><text x="60" y="78" font-family="Lufga ExtraBold" font-size="34" fill="#032858" text-anchor="start">How everything connects — the building blocks of Clinket</text><rect x="62" y="94" width="70" height="5" rx="2.5" fill="#97EF29"/><text x="60" y="128" font-family="Lufga" font-size="16" fill="#5F5F5F" text-anchor="start">A plain-English map of the pieces behind the product and how they relate. (Simplified — the full technical model is available for review.)</text><rect x="60" y="180" width="240" height="118" rx="12" fill="#FFFFFF" stroke="#E7E7E7" stroke-width="1.2" /><rect x="60" y="180" width="240" height="34" rx="12" fill="#032858"/><rect x="60" y="202" width="240" height="12" fill="#032858"/><rect x="60" y="214" width="240" height="3" fill="#5BE7FF"/><text x="180.0" y="203" font-family="Lufga SemiBold" font-size="14.5" fill="#FFFFFF" text-anchor="middle">Category</text><text x="76" y="240" font-family="Lufga" font-size="12" fill="#5F5F5F" text-anchor="start">300+ types of services,</text><text x="76" y="259" font-family="Lufga" font-size="12" fill="#5F5F5F" text-anchor="start">with subcategories</text><rect x="350" y="180" width="260" height="118" rx="12" fill="#FFFFFF" stroke="#E7E7E7" stroke-width="1.2" /><rect x="350" y="180" width="260" height="34" rx="12" fill="#032858"/><rect x="350" y="202" width="260" height="12" fill="#032858"/><rect x="350" y="214" width="260" height="3" fill="#97EF29"/><text x="480.0" y="203" font-family="Lufga SemiBold" font-size="14.5" fill="#FFFFFF" text-anchor="middle">Service</text><text x="366" y="240" font-family="Lufga" font-size="12" fill="#5F5F5F" text-anchor="start">what a provider offers —</text><text x="366" y="259" font-family="Lufga" font-size="12" fill="#5F5F5F" text-anchor="start">prices, photos, details</text><rect x="660" y="180" width="300" height="118" rx="12" fill="#FFFFFF" stroke="#E7E7E7" stroke-width="1.2" /><rect x="660" y="180" width="300" height="34" rx="12" fill="#032858"/><rect x="660" y="202" width="300" height="12" fill="#032858"/><rect x="660" y="214" width="300" height="3" fill="#97EF29"/><text x="810.0" y="203" font-family="Lufga SemiBold" font-size="14.5" fill="#FFFFFF" text-anchor="middle">Provider</text><text x="676" y="240" font-family="Lufga" font-size="12" fill="#5F5F5F" text-anchor="start">business profile + own website</text><text x="676" y="259" font-family="Lufga" font-size="12" fill="#5F5F5F" text-anchor="start">service areas · working hours</text><rect x="1010" y="180" width="260" height="118" rx="12" fill="#FFFFFF" stroke="#E7E7E7" stroke-width="1.2" /><rect x="1010" y="180" width="260" height="34" rx="12" fill="#032858"/><rect x="1010" y="202" width="260" height="12" fill="#032858"/><rect x="1010" y="214" width="260" height="3" fill="#97EF29"/><text x="1140.0" y="203" font-family="Lufga SemiBold" font-size="14.5" fill="#FFFFFF" text-anchor="middle">Subscription</text><text x="1026" y="240" font-family="Lufga" font-size="12" fill="#5F5F5F" text-anchor="start">Free / Basic / Premium / Max</text><text x="1026" y="259" font-family="Lufga" font-size="12" fill="#5F5F5F" text-anchor="start">AI minutes · top-ups · offers</text><rect x="1320" y="180" width="220" height="118" rx="12" fill="#FFFFFF" stroke="#E7E7E7" stroke-width="1.2" /><rect x="1320" y="180" width="220" height="34" rx="12" fill="#032858"/><rect x="1320" y="202" width="220" height="12" fill="#032858"/><rect x="1320" y="214" width="220" height="3" fill="#0869D4"/><text x="1430.0" y="203" font-family="Lufga SemiBold" font-size="14.5" fill="#FFFFFF" text-anchor="middle">AI phone line</text><text x="1336" y="240" font-family="Lufga" font-size="12" fill="#5F5F5F" text-anchor="start">its own phone number</text><text x="1336" y="259" font-family="Lufga" font-size="12" fill="#5F5F5F" text-anchor="start">call rules set by the owner</text><rect x="60" y="410" width="240" height="118" rx="12" fill="#FFFFFF" stroke="#E7E7E7" stroke-width="1.2" /><rect x="60" y="410" width="240" height="34" rx="12" fill="#032858"/><rect x="60" y="432" width="240" height="12" fill="#032858"/><rect x="60" y="444" width="240" height="3" fill="#97EF29"/><text x="180.0" y="433" font-family="Lufga SemiBold" font-size="14.5" fill="#FFFFFF" text-anchor="middle">Quote request</text><text x="76" y="470" font-family="Lufga" font-size="12" fill="#5F5F5F" text-anchor="start">a “Get Quotes” job post —</text><text x="76" y="489" font-family="Lufga" font-size="12" fill="#5F5F5F" text-anchor="start">photos · budget · deadline</text><rect x="350" y="410" width="260" height="118" rx="12" fill="#FFFFFF" stroke="#E7E7E7" stroke-width="1.2" /><rect x="350" y="410" width="260" height="34" rx="12" fill="#032858"/><rect x="350" y="432" width="260" height="12" fill="#032858"/><rect x="350" y="444" width="260" height="3" fill="#5BE7FF"/><text x="480.0" y="433" font-family="Lufga SemiBold" font-size="14.5" fill="#FFFFFF" text-anchor="middle">Offer (bid)</text><text x="366" y="470" font-family="Lufga" font-size="12" fill="#5F5F5F" text-anchor="start">price · questions + answers</text><text x="366" y="489" font-family="Lufga" font-size="12" fill="#5F5F5F" text-anchor="start">one winner per request</text><rect x="660" y="410" width="300" height="118" rx="12" fill="#FFFFFF" stroke="#E7E7E7" stroke-width="1.2" /><rect x="660" y="410" width="300" height="34" rx="12" fill="#032858"/><rect x="660" y="432" width="300" height="12" fill="#032858"/><rect x="660" y="444" width="300" height="3" fill="#97EF29"/><text x="810.0" y="433" font-family="Lufga SemiBold" font-size="14.5" fill="#FFFFFF" text-anchor="middle">Booking</text><text x="676" y="470" font-family="Lufga" font-size="12" fill="#5F5F5F" text-anchor="start">confirmed appointments,</text><text x="676" y="489" font-family="Lufga" font-size="12" fill="#5F5F5F" text-anchor="start">reminders, no double-booking</text><rect x="1010" y="410" width="260" height="118" rx="12" fill="#FFFFFF" stroke="#E7E7E7" stroke-width="1.2" /><rect x="1010" y="410" width="260" height="34" rx="12" fill="#032858"/><rect x="1010" y="432" width="260" height="12" fill="#032858"/><rect x="1010" y="444" width="260" height="3" fill="#97EF29"/><text x="1140.0" y="433" font-family="Lufga SemiBold" font-size="14.5" fill="#FFFFFF" text-anchor="middle">Invoice</text><text x="1026" y="470" font-family="Lufga" font-size="12" fill="#5F5F5F" text-anchor="start">created automatically,</text><text x="1026" y="489" font-family="Lufga" font-size="12" fill="#5F5F5F" text-anchor="start">with a link to pay</text><rect x="1320" y="410" width="220" height="118" rx="12" fill="#FFFFFF" stroke="#E7E7E7" stroke-width="1.2" /><rect x="1320" y="410" width="220" height="34" rx="12" fill="#032858"/><rect x="1320" y="432" width="220" height="12" fill="#032858"/><rect x="1320" y="444" width="220" height="3" fill="#0869D4"/><text x="1430.0" y="433" font-family="Lufga SemiBold" font-size="14.5" fill="#FFFFFF" text-anchor="middle">Call + summary</text><text x="1336" y="470" font-family="Lufga" font-size="12" fill="#5F5F5F" text-anchor="start">what was said + what the</text><text x="1336" y="489" font-family="Lufga" font-size="12" fill="#5F5F5F" text-anchor="start">AI did · follow-up ideas</text><rect x="60" y="640" width="240" height="118" rx="12" fill="#FFFFFF" stroke="#E7E7E7" stroke-width="1.2" /><rect x="60" y="640" width="240" height="34" rx="12" fill="#032858"/><rect x="60" y="662" width="240" height="12" fill="#032858"/><rect x="60" y="674" width="240" height="3" fill="#97EF29"/><text x="180.0" y="663" font-family="Lufga SemiBold" font-size="14.5" fill="#FFFFFF" text-anchor="middle">Customer</text><text x="76" y="700" font-family="Lufga" font-size="12" fill="#5F5F5F" text-anchor="start">decides what to share —</text><text x="76" y="719" font-family="Lufga" font-size="12" fill="#5F5F5F" text-anchor="start">privacy in their hands</text><rect x="350" y="640" width="260" height="118" rx="12" fill="#FFFFFF" stroke="#E7E7E7" stroke-width="1.2" /><rect x="350" y="640" width="260" height="34" rx="12" fill="#032858"/><rect x="350" y="662" width="260" height="12" fill="#032858"/><rect x="350" y="674" width="260" height="3" fill="#5BE7FF"/><text x="480.0" y="663" font-family="Lufga SemiBold" font-size="14.5" fill="#FFFFFF" text-anchor="middle">Conversation</text><text x="366" y="700" font-family="Lufga" font-size="12" fill="#5F5F5F" text-anchor="start">chat · voice notes · files</text><text x="366" y="719" font-family="Lufga" font-size="12" fill="#5F5F5F" text-anchor="start">also on WhatsApp · encrypted</text><rect x="660" y="640" width="300" height="118" rx="12" fill="#FFFFFF" stroke="#E7E7E7" stroke-width="1.2" /><rect x="660" y="640" width="300" height="34" rx="12" fill="#032858"/><rect x="660" y="662" width="300" height="12" fill="#032858"/><rect x="660" y="674" width="300" height="3" fill="#97EF29"/><text x="810.0" y="663" font-family="Lufga SemiBold" font-size="14.5" fill="#FFFFFF" text-anchor="middle">Review</text><text x="676" y="700" font-family="Lufga" font-size="12" fill="#5F5F5F" text-anchor="start">ratings + photos · replies</text><text x="676" y="719" font-family="Lufga" font-size="12" fill="#5F5F5F" text-anchor="start">builds the provider’s reputation</text><rect x="1010" y="640" width="260" height="118" rx="12" fill="#FFFFFF" stroke="#E7E7E7" stroke-width="1.2" /><rect x="1010" y="640" width="260" height="34" rx="12" fill="#032858"/><rect x="1010" y="662" width="260" height="12" fill="#032858"/><rect x="1010" y="674" width="260" height="3" fill="#97EF29"/><text x="1140.0" y="663" font-family="Lufga SemiBold" font-size="14.5" fill="#FFFFFF" text-anchor="middle">Payment</text><text x="1026" y="700" font-family="Lufga" font-size="12" fill="#5F5F5F" text-anchor="start">held safely until the job is</text><text x="1026" y="719" font-family="Lufga" font-size="12" fill="#5F5F5F" text-anchor="start">done · refunds if it goes wrong</text><rect x="1320" y="640" width="220" height="118" rx="12" fill="#FFFFFF" stroke="#E7E7E7" stroke-width="1.2" /><rect x="1320" y="640" width="220" height="34" rx="12" fill="#032858"/><rect x="1320" y="662" width="220" height="12" fill="#032858"/><rect x="1320" y="674" width="220" height="3" fill="#0869D4"/><text x="1430.0" y="663" font-family="Lufga SemiBold" font-size="14.5" fill="#FFFFFF" text-anchor="middle">Customer book</text><text x="1336" y="700" font-family="Lufga" font-size="12" fill="#5F5F5F" text-anchor="start">the provider’s own customers,</text><text x="1336" y="719" font-family="Lufga" font-size="12" fill="#5F5F5F" text-anchor="start">built automatically from calls</text><line x1="300" y1="239.0" x2="344" y2="239.0" stroke="#9CA3AF" stroke-width="1.8" marker-end="url(#ah-9CA3AF)"/><rect x="305" y="230.0" width="41" height="17" rx="8" fill="#FFFFFF" stroke="#E7E7E7" stroke-width="0.8"/><text x="325.0" y="242.5" font-family="Lufga Medium" font-size="10.5" fill="#5F5F5F" text-anchor="middle">sorts</text><line x1="610" y1="239.0" x2="654" y2="239.0" stroke="#9CA3AF" stroke-width="1.8" marker-end="url(#ah-9CA3AF)"/><rect x="600" y="230.0" width="69" height="17" rx="8" fill="#FFFFFF" stroke="#E7E7E7" stroke-width="0.8"/><text x="635.0" y="242.5" font-family="Lufga Medium" font-size="10.5" fill="#5F5F5F" text-anchor="middle">offered by</text><line x1="960" y1="239.0" x2="1004" y2="239.0" stroke="#9CA3AF" stroke-width="1.8" marker-end="url(#ah-9CA3AF)"/><rect x="956" y="230.0" width="58" height="17" rx="8" fill="#FFFFFF" stroke="#E7E7E7" stroke-width="0.8"/><text x="985.0" y="242.5" font-family="Lufga Medium" font-size="10.5" fill="#5F5F5F" text-anchor="middle">pays for</text><line x1="1270" y1="239.0" x2="1314" y2="239.0" stroke="#9CA3AF" stroke-width="1.8" marker-end="url(#ah-9CA3AF)"/><rect x="1269" y="230.0" width="52" height="17" rx="8" fill="#FFFFFF" stroke="#E7E7E7" stroke-width="0.8"/><text x="1295.0" y="242.5" font-family="Lufga Medium" font-size="10.5" fill="#5F5F5F" text-anchor="middle">unlocks</text><line x1="300" y1="469.0" x2="344" y2="469.0" stroke="#9CA3AF" stroke-width="1.8" marker-end="url(#ah-9CA3AF)"/><rect x="296" y="460.0" width="58" height="17" rx="8" fill="#FFFFFF" stroke="#E7E7E7" stroke-width="0.8"/><text x="325.0" y="472.5" font-family="Lufga Medium" font-size="10.5" fill="#5F5F5F" text-anchor="middle">receives</text><line x1="610" y1="469.0" x2="654" y2="469.0" stroke="#9CA3AF" stroke-width="1.8" marker-end="url(#ah-9CA3AF)"/><rect x="609" y="460.0" width="52" height="17" rx="8" fill="#FFFFFF" stroke="#E7E7E7" stroke-width="0.8"/><text x="635.0" y="472.5" font-family="Lufga Medium" font-size="10.5" fill="#5F5F5F" text-anchor="middle">becomes</text><line x1="960" y1="469.0" x2="1004" y2="469.0" stroke="#9CA3AF" stroke-width="1.8" marker-end="url(#ah-9CA3AF)"/><rect x="959" y="460.0" width="52" height="17" rx="8" fill="#FFFFFF" stroke="#E7E7E7" stroke-width="0.8"/><text x="985.0" y="472.5" font-family="Lufga Medium" font-size="10.5" fill="#5F5F5F" text-anchor="middle">creates</text><path d="M 1140.0 528 L 1140.0 584.0 L 1140.0 584.0 L 1140.0 634" fill="none" stroke="#9CA3AF" stroke-width="1.8" marker-end="url(#ah-9CA3AF)"/><rect x="1114" y="575.0" width="52" height="17" rx="8" fill="#FFFFFF" stroke="#E7E7E7" stroke-width="0.8"/><text x="1140.0" y="587.5" font-family="Lufga Medium" font-size="10.5" fill="#5F5F5F" text-anchor="middle">paid by</text><path d="M 1430.0 298 L 1430.0 354.0 L 1430.0 354.0 L 1430.0 404" fill="none" stroke="#9CA3AF" stroke-width="1.8" marker-end="url(#ah-9CA3AF)"/><rect x="1404" y="345.0" width="52" height="17" rx="8" fill="#FFFFFF" stroke="#E7E7E7" stroke-width="0.8"/><text x="1430.0" y="357.5" font-family="Lufga Medium" font-size="10.5" fill="#5F5F5F" text-anchor="middle">answers</text><path d="M 1430.0 528 L 1430.0 584.0 L 1430.0 584.0 L 1430.0 634" fill="none" stroke="#9CA3AF" stroke-width="1.8" marker-end="url(#ah-9CA3AF)"/><rect x="1404" y="575.0" width="52" height="17" rx="8" fill="#FFFFFF" stroke="#E7E7E7" stroke-width="0.8"/><text x="1430.0" y="587.5" font-family="Lufga Medium" font-size="10.5" fill="#5F5F5F" text-anchor="middle">adds to</text><path d="M 180.0 640 L 180.0 584.0 L 180.0 584.0 L 180.0 534" fill="none" stroke="#9CA3AF" stroke-width="1.8" marker-end="url(#ah-9CA3AF)"/><rect x="160" y="575.0" width="41" height="17" rx="8" fill="#FFFFFF" stroke="#E7E7E7" stroke-width="0.8"/><text x="180.0" y="587.5" font-family="Lufga Medium" font-size="10.5" fill="#5F5F5F" text-anchor="middle">posts</text><line x1="300" y1="699.0" x2="344" y2="699.0" stroke="#9CA3AF" stroke-width="1.8" marker-end="url(#ah-9CA3AF)"/><rect x="293" y="690.0" width="64" height="17" rx="8" fill="#FFFFFF" stroke="#E7E7E7" stroke-width="0.8"/><text x="325.0" y="702.5" font-family="Lufga Medium" font-size="10.5" fill="#5F5F5F" text-anchor="middle">chats via</text><path d="M 480.0 640 L 480.0 584.0 L 480.0 584.0 L 480.0 534" fill="none" stroke="#9CA3AF" stroke-width="1.8" marker-end="url(#ah-9CA3AF)"/><rect x="448" y="575.0" width="64" height="17" rx="8" fill="#FFFFFF" stroke="#E7E7E7" stroke-width="0.8"/><text x="480.0" y="587.5" font-family="Lufga Medium" font-size="10.5" fill="#5F5F5F" text-anchor="middle">discusses</text><path d="M 810.0 640 L 810.0 584.0 L 810.0 584.0 L 810.0 534" fill="none" stroke="#9CA3AF" stroke-width="1.8" marker-end="url(#ah-9CA3AF)"/><rect x="790" y="575.0" width="41" height="17" rx="8" fill="#FFFFFF" stroke="#E7E7E7" stroke-width="0.8"/><text x="810.0" y="587.5" font-family="Lufga Medium" font-size="10.5" fill="#5F5F5F" text-anchor="middle">after</text><path d="M 810.0 298 L 810.0 354.0 L 810.0 354.0 L 810.0 404" fill="none" stroke="#9CA3AF" stroke-width="1.8" marker-end="url(#ah-9CA3AF)"/><rect x="770" y="345.0" width="81" height="17" rx="8" fill="#FFFFFF" stroke="#E7E7E7" stroke-width="0.8"/><text x="810.0" y="357.5" font-family="Lufga Medium" font-size="10.5" fill="#5F5F5F" text-anchor="middle">does the job</text><line x1="60" y1="804" x2="1540" y2="804" stroke="#E7E7E7" stroke-width="1"/><g transform="translate(60,816) scale(0.4)">
<rect width="50" height="50" rx="10.84" fill="#97EF29"/>
<path d="M33.69 33.8778C31.1925 33.8778 28.9759 33.3658 27.0403 32.3418C25.1047 31.2868 23.575 29.8749 22.4511 28.1062C21.4179 26.2247 20.8057 24.2349 20.7653 21.9623C20.7653 19.6661 21.3272 17.6336 22.4511 15.8649C23.575 14.0652 25.1047 12.6378 27.0403 11.5828C28.9759 10.5278 31.1925 10.0002 33.69 10.0002H37.2959L35.1208 13.9752L33.971 16.0976C32.7535 16.0976 31.7076 16.3614 30.8335 16.8889C29.9593 17.3854 29.2725 18.0835 28.773 18.9834C28.3047 19.8523 28.0706 20.8452 28.0706 21.9623C28.0706 23.0794 28.3047 24.0878 28.773 24.9877C29.2725 25.8566 29.9593 26.5547 30.8335 27.0822C31.7076 27.5787 32.7535 27.827 33.971 27.827H37.2959V33.8778H33.69Z" fill="#032858"/>
<path d="M16.1058 16.1226C18.6033 16.1226 20.8199 16.6346 22.7555 17.6586C24.6911 18.7136 26.2208 20.1255 27.3447 21.8942C28.4686 23.6939 29.0306 25.7419 29.0306 28.0381C29.0306 30.3344 28.4686 32.3668 27.3447 34.1355C26.2208 35.9353 24.6911 37.3626 22.7555 38.4177C20.8199 39.4727 18.6033 40.0002 16.1058 40.0002H12.5L14.675 36.0252L15.8248 33.9028C17.0424 33.9028 18.0882 33.639 18.9624 33.1115C19.8365 32.6151 20.5233 31.9169 21.0228 31.017C21.4911 30.1482 21.7253 29.1552 21.7253 28.0381C21.7253 26.9211 21.4911 25.9126 21.0228 25.0127C20.5233 24.1439 19.8365 23.4457 18.9624 22.9182C18.0882 22.4217 17.0424 22.1735 15.8248 22.1735H12.5L12.5 16.1226H16.1058Z" fill="#032858"/></g><text x="88" y="831" font-family="Lufga Medium" font-size="12" fill="#5F5F5F" text-anchor="start">Clinket</text><text x="1540" y="831" font-family="Lufga" font-size="12" fill="#5F5F5F" text-anchor="end">Entity map (simplified)  ·  Confidential</text></svg>